<svg width="1741" height="678" viewBox="0 0 1741 678" fill="none" xmlns="http://www.w3.org/2000/svg">
<path d="M366.299 486.439C369.925 486.153 376.107 485.959 382.179 485.111C404.198 482.054 424.553 474.766 443.343 463.697C462.772 452.259 479.347 437.877 493.85 421.4C505.003 408.726 515.175 395.427 522.437 380.412C530.361 364.017 533.127 347.029 528.278 329.448C519.803 298.732 500.187 275.376 471.776 258.327C444.577 242.013 414.15 235.216 382.157 233.918C363.863 233.172 345.691 234.531 327.749 238.129C305.025 242.688 283.822 250.477 265.252 263.663C261.681 266.197 256.061 267.802 257.361 273.864C257.483 274.456 256.48 275.673 255.73 275.938C248.303 278.535 244.875 284.381 242.109 290.555C228.433 321.066 220.972 352.61 224.465 385.85C226.372 404.024 233.722 420.102 246.782 433.819C261.009 448.773 278.289 460.109 297.09 469.533C317.875 479.969 339.949 486.194 366.299 486.439Z" fill="#FED94C"/>
<path d="M394.997 511.206C394.622 507.547 396.231 506.249 398.633 505.922C401.179 505.584 402.336 507.087 402.799 509.295C407.681 532.467 413.875 555.342 421.28 577.932C422.438 581.458 421.787 583.114 419.142 583.942C416.619 584.729 414.536 583.482 413.599 580.16C408.199 561.005 402.854 541.84 397.586 522.664C396.451 518.525 395.691 514.303 394.997 511.206Z" fill="#FED94C"/>
<path d="M206.182 146.535C206.767 147.026 208.331 147.833 209.125 149.06C219.936 165.833 230.67 182.658 241.36 199.513C242.969 202.058 242.253 204.348 239.784 205.421C237.007 206.627 235.596 205.196 234.285 203.111C224.906 188.136 215.473 173.203 206.017 158.269C204.684 156.164 203.086 154.201 201.752 152.095C199.989 149.336 201.631 146.658 206.182 146.535Z" fill="#FED94C"/>
<path d="M399.305 139.697C400.396 126.695 401.465 113.703 402.579 100.702C402.667 99.7001 402.678 98.2486 403.339 97.8091C404.882 96.787 406.777 95.8057 408.574 95.7239C409.29 95.6933 410.877 98.126 410.789 99.3628C410.337 106.16 409.224 112.927 408.86 119.724C408.331 129.485 407.968 139.278 408.089 149.049C408.188 157.186 409.037 165.322 409.665 173.448C409.918 176.688 410.403 179.918 410.855 183.148C411.296 186.266 410.15 188.218 407.45 188.402C404.584 188.596 403.24 187.022 403.008 184.538C402.05 174.092 400.992 163.646 400.22 153.189C399.89 148.722 400.165 144.225 400.165 139.738C399.867 139.727 399.592 139.717 399.305 139.697Z" fill="#FED94C"/>
<path d="M563.378 146.484C562.243 147.864 561.56 149.213 560.425 150C535.992 166.896 515.66 187.288 499.228 211.073C497.31 213.843 495.228 214.436 492.979 212.903C490.478 211.196 490.919 209.233 492.439 207.036C509.532 182.279 530.846 161.172 556.336 143.714C557.383 142.998 559.378 142.671 560.513 143.1C561.659 143.53 562.298 145.134 563.378 146.484Z" fill="#FDDA4A"/>
<path d="M243.167 589.635C241.679 588.378 239.971 587.611 239.718 586.548C239.398 585.22 239.817 583.298 240.721 582.225C243.63 578.78 246.98 575.652 250.044 572.31C267.578 553.247 281.794 532.242 292.936 509.427C292.98 509.335 293.046 509.254 293.09 509.151C294.082 506.903 295.063 504.542 298.49 505.727C301.3 506.698 302.116 509.233 300.286 512.443C293.773 523.891 287.558 535.513 280.372 546.593C271.17 560.79 260.073 573.782 247.873 585.915C246.584 587.202 244.997 588.204 243.167 589.635Z" fill="#FED94C"/>
<path d="M314.8 185.887C313.434 186.92 312.21 188.504 310.657 188.872C307.979 189.516 306.7 187.564 306.182 185.407C304.617 178.865 302.975 172.324 301.653 165.741C296.991 142.559 294.192 119.203 293.938 95.6012C293.927 94.8857 293.95 94.1702 293.938 93.4547C293.905 91.3491 295.151 90.1634 297.245 89.9079C299.493 89.6319 301.069 90.6949 301.774 92.6677C302.039 93.4139 301.994 94.2827 301.994 95.0902C302.226 124.548 306.458 153.537 313.687 182.187C313.941 183.179 314.073 184.191 314.26 185.192C314.448 185.417 314.624 185.652 314.8 185.887Z" fill="#FED94C"/>
<path d="M182.973 263.448C181.177 262.528 179.832 262.048 178.763 261.261C151.851 241.4 126.57 219.884 102.722 196.916C101.962 196.18 101.212 195.424 100.485 194.657C98.7105 192.787 98.8427 190.876 100.76 189.291C102.601 187.768 104.662 187.993 106.37 189.588C109.169 192.184 111.847 194.893 114.613 197.52C136.577 218.33 159.874 237.772 184.34 256.017C185.541 256.906 186.588 258.879 186.401 260.187C186.246 261.363 184.274 262.303 182.973 263.448Z" fill="#FED94C"/>
<path d="M108.508 377.571C89.8941 377.571 71.2695 377.571 52.6559 377.571C51.9947 377.571 51.3334 377.499 50.6722 377.499C48.0053 377.479 46.4734 376.221 46.4844 373.768C46.4955 371.305 48.1485 370.048 50.7383 370.068C55.907 370.109 61.0756 370.344 66.2552 370.365C85.6512 370.467 105.036 370.549 124.432 370.589C138.208 370.62 151.984 370.569 165.759 370.569C169.12 370.569 170.862 371.796 170.652 374.157C170.41 376.886 168.547 377.949 165.704 377.949C146.639 377.928 127.584 377.939 108.519 377.939C108.508 377.806 108.508 377.683 108.508 377.571Z" fill="#FED94C"/>
<path d="M97.5424 513.23C96.1318 512.054 94.0819 511.155 93.8946 510C93.6742 508.671 94.6771 506.606 95.8783 505.717C105.896 498.388 115.903 491.029 126.251 484.119C147.73 469.778 170.597 457.574 194.545 447.148C196.01 446.514 198.314 446.371 199.702 446.995C202.755 448.364 202.468 451.605 199.317 453.128C191.426 456.94 183.392 460.518 175.567 464.433C149.526 477.465 125.138 492.767 102.38 510.327C101.08 511.329 99.5261 512.044 97.5424 513.23Z" fill="#FED94C"/>
<path d="M575.942 570.409C574.696 569.509 573.44 568.896 572.603 567.956C557.405 551.141 541.966 534.511 527.187 517.38C517.092 505.686 507.934 493.298 498.336 481.226C496.837 479.346 496.374 477.516 498.523 475.84C500.473 474.317 503.008 474.777 504.893 476.892C505.312 477.363 505.664 477.884 506.05 478.385C514.106 488.606 521.754 499.124 530.295 508.978C546.01 527.111 562.232 544.875 578.3 562.753C579.942 564.582 581.077 566.31 579.193 568.405C578.488 569.203 577.297 569.601 575.942 570.409Z" fill="#FED94C"/>
<path d="M562.596 304.998C558.54 305.141 557.03 304.375 556.854 301.973C556.667 299.54 558.662 297.802 562.023 297.465C600.804 293.519 638.891 286.354 676.36 276.358C677.099 276.163 677.848 275.99 678.598 275.857C681.066 275.427 682.719 276.378 683.358 278.576C684.031 280.886 682.73 282.378 680.471 282.991C674.057 284.729 667.676 286.661 661.152 287.959C637.579 292.63 613.984 297.23 590.323 301.502C581.187 303.148 571.853 303.864 562.596 304.998Z" fill="#FED94C"/>
<path d="M681.474 444.511C676.867 443.295 672.955 442.303 669.065 441.22C631.099 430.681 593.542 419.049 556.491 405.986C555.774 405.731 554.992 405.557 554.386 405.158C552.292 403.819 552.171 401.816 553.074 399.976C553.945 398.187 555.675 397.779 557.813 398.525C566.751 401.642 575.633 404.913 584.703 407.673C616.607 417.404 648.578 426.951 680.515 436.569C681.441 436.845 682.763 436.998 683.149 437.622C683.888 438.818 684.67 440.422 684.361 441.618C684.086 442.784 682.422 443.632 681.474 444.511Z" fill="#FED94C"/>
<path d="M373.297 226.395C406.447 226.507 438.164 232.283 467.434 247.277C498.38 263.131 520.619 286.191 532.918 317.07C542.803 341.877 539.717 365.928 527.022 389.213C517.456 406.763 504.529 422.105 490.291 436.528C471.115 455.949 448.986 471.649 422.768 482.146C403.537 489.843 383.436 493.748 362.508 493.605C336.125 493.421 311.968 485.846 289.277 473.816C272.592 464.964 256.821 454.937 243.63 441.802C228.3 426.552 219.164 408.603 216.564 387.853C213.081 360.184 218.14 333.444 226.923 307.145C229.259 300.163 232.301 293.387 235.012 286.507C235.243 285.935 235.849 285.24 235.673 284.821C233.811 280.415 237.69 278.238 239.993 275.703C258.904 254.862 283.458 242.269 311.175 234.552C331.408 228.92 352.149 226.283 373.297 226.395ZM366.299 486.439C369.925 486.153 376.107 485.959 382.18 485.111C404.198 482.054 424.553 474.766 443.343 463.697C462.772 452.259 479.347 437.877 493.85 421.4C505.003 408.726 515.175 395.427 522.437 380.412C530.361 364.017 533.127 347.029 528.278 329.448C519.803 298.732 500.187 275.376 471.776 258.327C444.578 242.013 414.15 235.216 382.157 233.918C363.863 233.172 345.691 234.531 327.749 238.129C305.025 242.688 283.822 250.477 265.252 263.663C261.682 266.197 256.061 267.802 257.361 273.864C257.483 274.456 256.48 275.673 255.73 275.938C248.303 278.535 244.875 284.381 242.109 290.555C228.433 321.066 220.972 352.61 224.465 385.85C226.372 404.024 233.723 420.102 246.782 433.819C261.009 448.773 278.289 460.109 297.09 469.533C317.875 479.969 339.949 486.194 366.299 486.439Z" fill="black"/>
<path d="M685.882 440.422C681.275 439.206 677.363 438.215 673.473 437.131C635.507 426.593 597.95 414.961 560.899 401.898C560.182 401.642 559.4 401.468 558.794 401.07C556.7 399.731 556.579 397.727 557.482 395.888C558.353 394.099 560.083 393.69 562.221 394.436C571.159 397.554 580.041 400.824 589.111 403.584C621.015 413.315 652.986 422.862 684.923 432.48C685.849 432.756 687.171 432.91 687.557 433.533C688.296 434.729 689.078 436.334 688.769 437.53C688.494 438.695 686.83 439.543 685.882 440.422Z" fill="black"/>
<path d="M560.392 300.91C556.336 301.053 554.826 300.286 554.65 297.884C554.463 295.451 556.457 293.714 559.819 293.376C598.6 289.431 636.687 282.266 674.156 272.269C674.895 272.075 675.644 271.901 676.393 271.768C678.862 271.339 680.515 272.289 681.154 274.487C681.827 276.797 680.526 278.289 678.267 278.903C671.853 280.64 665.472 282.572 658.948 283.87C635.375 288.542 611.78 293.141 588.119 297.414C578.983 299.059 569.649 299.775 560.392 300.91Z" fill="black"/>
<path d="M579.248 570.409C578.003 569.509 576.746 568.896 575.909 567.956C560.711 551.141 545.272 534.511 530.493 517.38C520.399 505.687 511.241 493.298 501.642 481.227C500.143 479.346 499.68 477.516 501.829 475.84C503.78 474.317 506.314 474.777 508.199 476.893C508.618 477.363 508.97 477.884 509.356 478.385C517.412 488.606 525.06 499.124 533.601 508.978C549.316 527.111 565.538 544.876 581.606 562.753C583.248 564.583 584.383 566.31 582.499 568.406C581.794 569.203 580.603 569.601 579.248 570.409Z" fill="black"/>
<path d="M99.7465 514.252C98.3359 513.077 96.286 512.177 96.0987 511.022C95.8783 509.693 96.8812 507.629 98.0824 506.739C108.1 499.411 118.107 492.051 128.455 485.141C149.934 470.801 172.801 458.596 196.749 448.17C198.215 447.537 200.518 447.394 201.906 448.017C204.959 449.387 204.673 452.627 201.521 454.15C193.63 457.963 185.596 461.54 177.772 465.455C151.73 478.487 127.342 493.789 104.584 511.349C103.284 512.351 101.73 513.066 99.7465 514.252Z" fill="black"/>
<path d="M107.406 380.637C88.7921 380.637 70.1675 380.637 51.5539 380.637C50.8926 380.637 50.2314 380.566 49.5702 380.566C46.9032 380.545 45.3714 379.288 45.3824 376.835C45.3934 374.371 47.0465 373.114 49.6363 373.135C54.8049 373.175 59.9735 373.411 65.1531 373.431C84.5492 373.533 103.934 373.615 123.33 373.656C137.106 373.686 150.882 373.635 164.657 373.635C168.018 373.635 169.76 374.862 169.55 377.223C169.308 379.952 167.445 381.015 164.602 381.015C145.537 380.995 126.482 381.005 107.417 381.005C107.406 380.872 107.406 380.75 107.406 380.637Z" fill="black"/>
<path d="M177.463 266.514C175.667 265.594 174.322 265.114 173.253 264.327C146.341 244.467 121.06 222.95 97.2117 199.983C96.4513 199.247 95.7019 198.491 94.9745 197.724C93.2002 195.853 93.3325 193.942 95.2501 192.358C97.0905 190.835 99.1513 191.059 100.859 192.654C103.659 195.25 106.337 197.959 109.103 200.586C131.067 221.397 154.364 240.838 178.829 259.083C180.031 259.973 181.078 261.945 180.89 263.254C180.736 264.429 178.763 265.37 177.463 266.514Z" fill="black"/>
<path d="M309.29 182.821C307.923 183.853 306.7 185.438 305.146 185.806C302.468 186.45 301.19 184.497 300.672 182.341C299.107 175.799 297.465 169.257 296.143 162.675C291.481 139.492 288.682 116.136 288.428 92.5348C288.417 91.8193 288.439 91.1038 288.428 90.3883C288.395 88.2827 289.64 87.097 291.734 86.8415C293.983 86.5655 295.558 87.6285 296.264 89.6013C296.528 90.3475 296.484 91.2163 296.484 92.0238C296.716 121.482 300.948 150.47 308.177 179.121C308.43 180.112 308.563 181.124 308.75 182.126C308.937 182.351 309.114 182.586 309.29 182.821Z" fill="black"/>
<path d="M246.473 592.702C244.985 591.445 243.277 590.678 243.024 589.615C242.704 588.286 243.123 586.365 244.027 585.291C246.936 581.847 250.286 578.719 253.35 575.377C270.884 556.313 285.1 535.308 296.242 512.494C296.286 512.402 296.352 512.32 296.396 512.218C297.388 509.969 298.369 507.608 301.796 508.794C304.606 509.765 305.422 512.3 303.592 515.509C297.079 526.957 290.864 538.579 283.678 549.659C274.476 563.857 263.379 576.848 251.179 588.981C249.889 590.269 248.303 591.271 246.473 592.702Z" fill="black"/>
<path d="M558.97 144.439C557.835 145.819 557.152 147.169 556.017 147.956C531.584 164.852 511.251 185.244 494.82 209.029C492.902 211.799 490.819 212.392 488.571 210.859C486.069 209.152 486.51 207.189 488.031 204.991C505.124 180.235 526.438 159.128 551.928 141.669C552.975 140.954 554.97 140.627 556.105 141.056C557.251 141.485 557.89 143.09 558.97 144.439Z" fill="black"/>
<path d="M395.999 139.697C397.09 126.695 398.159 113.703 399.272 100.702C399.361 99.7001 399.372 98.2486 400.033 97.8091C401.576 96.787 403.471 95.8057 405.268 95.7239C405.984 95.6933 407.571 98.126 407.483 99.3628C407.031 106.16 405.918 112.927 405.554 119.724C405.025 129.485 404.661 139.278 404.783 149.049C404.882 157.186 405.73 165.322 406.359 173.448C406.612 176.688 407.097 179.918 407.549 183.148C407.99 186.266 406.843 188.218 404.143 188.402C401.278 188.596 399.934 187.022 399.702 184.538C398.743 174.092 397.685 163.646 396.914 153.189C396.583 148.722 396.859 144.225 396.859 139.738C396.561 139.727 396.286 139.717 395.999 139.697Z" fill="black"/>
<path d="M400.507 509.162C400.132 505.503 401.741 504.204 404.144 503.877C406.689 503.54 407.846 505.043 408.309 507.25C413.191 530.423 419.385 553.298 426.791 575.888C427.948 579.414 427.298 581.07 424.653 581.898C422.129 582.685 420.046 581.438 419.109 578.116C413.709 558.961 408.364 539.796 403.097 520.62C401.961 516.48 401.201 512.259 400.507 509.162Z" fill="black"/>
<path d="M202.876 151.646C203.46 152.136 205.025 152.944 205.819 154.17C216.63 170.944 227.364 187.768 238.054 204.623C239.663 207.169 238.946 209.458 236.478 210.531C233.701 211.737 232.29 210.306 230.979 208.221C221.6 193.247 212.167 178.313 202.711 163.38C201.378 161.274 199.78 159.312 198.446 157.206C196.683 154.446 198.325 151.768 202.876 151.646Z" fill="black"/>
<path d="M357.593 426.143C337.547 425.847 322.118 424.825 307.692 418.671C290.059 411.148 277.331 398.699 267.423 383.561C261.406 374.371 256.854 364.559 254.066 354.102C253.659 352.559 253.901 350.218 254.926 349.124C257.163 346.733 260.546 347.99 261.505 351.353C264.701 362.576 269.572 373.124 276.614 382.743C285.827 395.325 296.76 406.242 312.199 412.385C325.093 417.516 338.814 418.354 352.601 418.457C394.765 418.753 432.003 406.365 464.15 380.995C466.585 379.073 468.9 377.039 471.203 374.975C473.143 373.237 475.104 373.114 477 374.821C479.083 376.692 478.818 378.787 476.724 380.402C469.054 386.361 461.659 392.699 453.471 397.993C432.719 411.424 409.621 419.908 384.648 423.608C374.256 425.141 363.665 425.591 357.593 426.143Z" fill="black"/>
<path d="M316.079 281.622C324.179 282.235 331.099 285.721 336.973 291.118C338.637 292.651 338.395 294.532 336.819 296.003C335.254 297.465 333.315 297.69 331.441 296.412C330.019 295.451 328.708 294.348 327.33 293.346C320.189 288.143 312.607 288.337 304.761 291.792C302.777 292.661 300.771 293.52 298.743 294.286C296.55 295.114 294.743 294.409 293.718 292.569C292.671 290.688 293.244 288.716 295.239 287.806C301.73 284.852 308.298 281.928 316.079 281.622Z" fill="black"/>
<path d="M414.348 300.49C417.544 301.646 421.071 302.341 423.87 304.058C428.62 306.971 432.907 310.518 437.37 313.819C439.266 315.22 439.971 316.906 438.197 318.777C436.544 320.514 434.417 321.025 432.334 319.554C428.84 317.08 425.578 314.341 422.074 311.877C416.079 307.656 410.767 307.605 404.485 311.397C403.416 312.041 401.95 312.91 400.969 312.664C399.57 312.306 397.884 311.223 397.377 310.048C396.958 309.107 397.674 307.104 398.611 306.378C403.03 302.974 408.144 301.042 414.029 301.257C414.128 301.002 414.238 300.746 414.348 300.49Z" fill="black"/>
<path d="M788.42 377V302.8H823.506C831.703 302.8 838.911 304.319 845.13 307.358C851.349 310.397 856.189 314.672 859.652 320.184C863.185 325.696 864.952 332.268 864.952 339.9C864.952 347.461 863.185 354.033 859.652 359.616C856.189 365.128 851.349 369.403 845.13 372.442C838.911 375.481 831.703 377 823.506 377H788.42ZM809.408 360.252H822.658C826.898 360.252 830.573 359.475 833.682 357.92C836.862 356.295 839.335 353.963 841.102 350.924C842.869 347.815 843.752 344.14 843.752 339.9C843.752 335.589 842.869 331.915 841.102 328.876C839.335 325.837 836.862 323.541 833.682 321.986C830.573 320.361 826.898 319.548 822.658 319.548H809.408V360.252ZM905.144 377.954C898.36 377.954 892.424 376.682 887.336 374.138C882.319 371.523 878.397 367.99 875.57 363.538C872.814 359.015 871.436 353.892 871.436 348.168C871.436 342.444 872.779 337.356 875.464 332.904C878.22 328.381 882.001 324.883 886.806 322.41C891.612 319.866 897.018 318.594 903.024 318.594C908.678 318.594 913.836 319.76 918.5 322.092C923.164 324.353 926.874 327.71 929.63 332.162C932.386 336.614 933.764 342.02 933.764 348.38C933.764 349.087 933.729 349.899 933.658 350.818C933.588 351.737 933.517 352.585 933.446 353.362H887.972V342.762H922.74L915.108 345.73C915.179 343.115 914.684 340.854 913.624 338.946C912.635 337.038 911.222 335.554 909.384 334.494C907.618 333.434 905.533 332.904 903.13 332.904C900.728 332.904 898.608 333.434 896.77 334.494C895.004 335.554 893.626 337.073 892.636 339.052C891.647 340.96 891.152 343.221 891.152 345.836V348.91C891.152 351.737 891.718 354.175 892.848 356.224C894.05 358.273 895.746 359.863 897.936 360.994C900.127 362.054 902.742 362.584 905.78 362.584C908.607 362.584 911.01 362.195 912.988 361.418C915.038 360.57 917.052 359.298 919.03 357.602L929.63 368.626C926.874 371.665 923.482 373.997 919.454 375.622C915.426 377.177 910.656 377.954 905.144 377.954ZM976.583 377V366.294L975.205 363.644V343.928C975.205 340.748 974.216 338.31 972.237 336.614C970.329 334.847 967.255 333.964 963.015 333.964C960.259 333.964 957.468 334.423 954.641 335.342C951.815 336.19 949.412 337.391 947.433 338.946L940.649 325.272C943.9 323.152 947.787 321.527 952.309 320.396C956.903 319.195 961.461 318.594 965.983 318.594C975.311 318.594 982.519 320.749 987.607 325.06C992.766 329.3 995.345 335.978 995.345 345.094V377H976.583ZM959.623 377.954C955.03 377.954 951.143 377.177 947.963 375.622C944.783 374.067 942.345 371.947 940.649 369.262C939.024 366.577 938.211 363.573 938.211 360.252C938.211 356.719 939.095 353.68 940.861 351.136C942.699 348.521 945.49 346.543 949.235 345.2C952.981 343.787 957.821 343.08 963.757 343.08H977.325V353.574H966.513C963.263 353.574 960.966 354.104 959.623 355.164C958.351 356.224 957.715 357.637 957.715 359.404C957.715 361.171 958.387 362.584 959.729 363.644C961.072 364.704 962.909 365.234 965.241 365.234C967.432 365.234 969.411 364.704 971.177 363.644C973.015 362.513 974.357 360.817 975.205 358.556L977.961 365.976C976.901 369.933 974.817 372.937 971.707 374.986C968.669 376.965 964.641 377.954 959.623 377.954ZM1008.06 377V298.348H1028.2V377H1008.06ZM1062.17 377.954C1057.29 377.954 1052.52 377.389 1047.86 376.258C1043.26 375.127 1039.55 373.714 1036.73 372.018L1042.77 358.238C1045.46 359.863 1048.6 361.171 1052.2 362.16C1055.81 363.079 1059.34 363.538 1062.8 363.538C1066.2 363.538 1068.53 363.185 1069.8 362.478C1071.14 361.771 1071.81 360.817 1071.81 359.616C1071.81 358.485 1071.18 357.673 1069.91 357.178C1068.7 356.613 1067.08 356.189 1065.03 355.906C1063.05 355.623 1060.86 355.305 1058.46 354.952C1056.06 354.599 1053.62 354.139 1051.14 353.574C1048.74 352.938 1046.52 352.019 1044.47 350.818C1042.49 349.546 1040.9 347.85 1039.7 345.73C1038.49 343.61 1037.89 340.925 1037.89 337.674C1037.89 333.999 1038.95 330.749 1041.07 327.922C1043.26 325.025 1046.44 322.763 1050.61 321.138C1054.78 319.442 1059.87 318.594 1065.88 318.594C1069.91 318.594 1073.97 319.018 1078.07 319.866C1082.24 320.643 1085.74 321.845 1088.56 323.47L1082.52 337.144C1079.69 335.519 1076.87 334.423 1074.04 333.858C1071.21 333.222 1068.53 332.904 1065.98 332.904C1062.59 332.904 1060.19 333.293 1058.78 334.07C1057.43 334.847 1056.76 335.801 1056.76 336.932C1056.76 338.063 1057.36 338.946 1058.56 339.582C1059.77 340.147 1061.36 340.607 1063.33 340.96C1065.38 341.243 1067.61 341.561 1070.01 341.914C1072.41 342.197 1074.82 342.656 1077.22 343.292C1079.69 343.928 1081.92 344.882 1083.9 346.154C1085.95 347.355 1087.57 349.016 1088.77 351.136C1089.98 353.185 1090.58 355.835 1090.58 359.086C1090.58 362.619 1089.48 365.799 1087.29 368.626C1085.17 371.453 1081.99 373.714 1077.75 375.41C1073.58 377.106 1068.39 377.954 1062.17 377.954ZM1107.74 377.954C1104.34 377.954 1101.48 376.823 1099.15 374.562C1096.82 372.301 1095.65 369.439 1095.65 365.976C1095.65 362.372 1096.82 359.51 1099.15 357.39C1101.48 355.199 1104.34 354.104 1107.74 354.104C1111.13 354.104 1113.99 355.199 1116.32 357.39C1118.65 359.51 1119.82 362.372 1119.82 365.976C1119.82 369.439 1118.65 372.301 1116.32 374.562C1113.99 376.823 1111.13 377.954 1107.74 377.954ZM1157.34 378.484C1151.26 378.484 1145.4 377.742 1139.74 376.258C1134.16 374.703 1129.6 372.725 1126.07 370.322L1132.96 354.846C1136.28 356.966 1140.1 358.733 1144.41 360.146C1148.79 361.489 1153.14 362.16 1157.45 362.16C1160.34 362.16 1162.68 361.913 1164.44 361.418C1166.21 360.853 1167.48 360.146 1168.26 359.298C1169.11 358.379 1169.53 357.319 1169.53 356.118C1169.53 354.422 1168.75 353.079 1167.2 352.09C1165.64 351.101 1163.63 350.288 1161.16 349.652C1158.68 349.016 1155.93 348.38 1152.89 347.744C1149.92 347.108 1146.92 346.295 1143.88 345.306C1140.91 344.317 1138.19 343.045 1135.72 341.49C1133.24 339.865 1131.23 337.78 1129.67 335.236C1128.12 332.621 1127.34 329.335 1127.34 325.378C1127.34 320.926 1128.54 316.898 1130.95 313.294C1133.42 309.69 1137.09 306.793 1141.97 304.602C1146.85 302.411 1152.92 301.316 1160.2 301.316C1165.08 301.316 1169.85 301.881 1174.51 303.012C1179.25 304.072 1183.45 305.662 1187.13 307.782L1180.66 323.364C1177.13 321.456 1173.63 320.043 1170.17 319.124C1166.7 318.135 1163.35 317.64 1160.1 317.64C1157.2 317.64 1154.87 317.958 1153.1 318.594C1151.33 319.159 1150.06 319.937 1149.28 320.926C1148.51 321.915 1148.12 323.046 1148.12 324.318C1148.12 325.943 1148.86 327.251 1150.34 328.24C1151.9 329.159 1153.91 329.936 1156.39 330.572C1158.93 331.137 1161.69 331.738 1164.65 332.374C1167.69 333.01 1170.7 333.823 1173.66 334.812C1176.7 335.731 1179.46 337.003 1181.93 338.628C1184.41 340.183 1186.38 342.267 1187.87 344.882C1189.42 347.426 1190.2 350.641 1190.2 354.528C1190.2 358.839 1188.96 362.831 1186.49 366.506C1184.09 370.11 1180.45 373.007 1175.57 375.198C1170.77 377.389 1164.69 378.484 1157.34 378.484ZM1223.11 377.954C1218.44 377.954 1214.24 377.035 1210.49 375.198C1206.82 373.361 1203.92 370.499 1201.8 366.612C1199.75 362.655 1198.73 357.673 1198.73 351.666V319.548H1218.87V348.38C1218.87 352.832 1219.68 356.012 1221.31 357.92C1223 359.828 1225.37 360.782 1228.41 360.782C1230.39 360.782 1232.19 360.323 1233.81 359.404C1235.44 358.485 1236.75 357.037 1237.74 355.058C1238.73 353.009 1239.22 350.394 1239.22 347.214V319.548H1259.36V377H1240.17V360.782L1243.88 365.34C1241.91 369.58 1239.04 372.76 1235.3 374.88C1231.55 376.929 1227.49 377.954 1223.11 377.954ZM1309.75 318.594C1314.2 318.594 1318.23 319.513 1321.84 321.35C1325.44 323.117 1328.27 325.873 1330.32 329.618C1332.44 333.363 1333.5 338.204 1333.5 344.14V377H1313.36V347.426C1313.36 343.327 1312.51 340.359 1310.81 338.522C1309.19 336.614 1306.89 335.66 1303.92 335.66C1301.8 335.66 1299.86 336.155 1298.09 337.144C1296.32 338.063 1294.95 339.511 1293.96 341.49C1292.97 343.469 1292.47 346.048 1292.47 349.228V377H1272.33V319.548H1291.52V335.872L1287.81 331.102C1290 326.933 1293 323.823 1296.82 321.774C1300.64 319.654 1304.95 318.594 1309.75 318.594ZM1420.98 318.594C1425.43 318.594 1429.39 319.513 1432.85 321.35C1436.38 323.117 1439.14 325.873 1441.12 329.618C1443.17 333.363 1444.19 338.204 1444.19 344.14V377H1424.05V347.426C1424.05 343.327 1423.27 340.359 1421.72 338.522C1420.16 336.614 1418.04 335.66 1415.36 335.66C1413.45 335.66 1411.72 336.119 1410.16 337.038C1408.61 337.957 1407.41 339.37 1406.56 341.278C1405.71 343.115 1405.29 345.518 1405.29 348.486V377H1385.15V347.426C1385.15 343.327 1384.37 340.359 1382.82 338.522C1381.33 336.614 1379.21 335.66 1376.46 335.66C1374.48 335.66 1372.71 336.119 1371.16 337.038C1369.67 337.957 1368.47 339.37 1367.55 341.278C1366.7 343.115 1366.28 345.518 1366.28 348.486V377H1346.14V319.548H1365.33V335.554L1361.51 330.996C1363.63 326.897 1366.53 323.823 1370.2 321.774C1373.88 319.654 1377.98 318.594 1382.5 318.594C1387.66 318.594 1392.18 319.937 1396.07 322.622C1400.02 325.237 1402.67 329.335 1404.02 334.918L1397.44 333.54C1399.49 328.876 1402.57 325.237 1406.67 322.622C1410.84 319.937 1415.61 318.594 1420.98 318.594ZM1487.73 377.954C1480.95 377.954 1475.01 376.682 1469.92 374.138C1464.9 371.523 1460.98 367.99 1458.16 363.538C1455.4 359.015 1454.02 353.892 1454.02 348.168C1454.02 342.444 1455.36 337.356 1458.05 332.904C1460.81 328.381 1464.59 324.883 1469.39 322.41C1474.2 319.866 1479.6 318.594 1485.61 318.594C1491.26 318.594 1496.42 319.76 1501.09 322.092C1505.75 324.353 1509.46 327.71 1512.22 332.162C1514.97 336.614 1516.35 342.02 1516.35 348.38C1516.35 349.087 1516.31 349.899 1516.24 350.818C1516.17 351.737 1516.1 352.585 1516.03 353.362H1470.56V342.762H1505.33L1497.69 345.73C1497.76 343.115 1497.27 340.854 1496.21 338.946C1495.22 337.038 1493.81 335.554 1491.97 334.494C1490.2 333.434 1488.12 332.904 1485.72 332.904C1483.31 332.904 1481.19 333.434 1479.36 334.494C1477.59 335.554 1476.21 337.073 1475.22 339.052C1474.23 340.96 1473.74 343.221 1473.74 345.836V348.91C1473.74 351.737 1474.3 354.175 1475.43 356.224C1476.64 358.273 1478.33 359.863 1480.52 360.994C1482.71 362.054 1485.33 362.584 1488.37 362.584C1491.19 362.584 1493.6 362.195 1495.57 361.418C1497.62 360.57 1499.64 359.298 1501.62 357.602L1512.22 368.626C1509.46 371.665 1506.07 373.997 1502.04 375.622C1498.01 377.177 1493.24 377.954 1487.73 377.954ZM1550.65 377.954C1545.42 377.954 1540.65 376.753 1536.34 374.35C1532.1 371.877 1528.71 368.449 1526.17 364.068C1523.62 359.616 1522.35 354.316 1522.35 348.168C1522.35 342.091 1523.62 336.861 1526.17 332.48C1528.71 328.028 1532.1 324.601 1536.34 322.198C1540.65 319.795 1545.42 318.594 1550.65 318.594C1555.6 318.594 1559.77 319.654 1563.16 321.774C1566.62 323.894 1569.24 327.145 1571 331.526C1572.77 335.907 1573.65 341.455 1573.65 348.168C1573.65 355.023 1572.81 360.641 1571.11 365.022C1569.41 369.403 1566.87 372.654 1563.48 374.774C1560.09 376.894 1555.81 377.954 1550.65 377.954ZM1554.89 361.948C1557.15 361.948 1559.17 361.418 1560.93 360.358C1562.77 359.298 1564.22 357.743 1565.28 355.694C1566.34 353.574 1566.87 351.065 1566.87 348.168C1566.87 345.271 1566.34 342.833 1565.28 340.854C1564.22 338.805 1562.77 337.25 1560.93 336.19C1559.17 335.13 1557.15 334.6 1554.89 334.6C1552.56 334.6 1550.48 335.13 1548.64 336.19C1546.87 337.25 1545.46 338.805 1544.4 340.854C1543.34 342.833 1542.81 345.271 1542.81 348.168C1542.81 351.065 1543.34 353.574 1544.4 355.694C1545.46 357.743 1546.87 359.298 1548.64 360.358C1550.48 361.418 1552.56 361.948 1554.89 361.948ZM1567.51 377V367.142L1567.61 348.168L1566.55 329.194V298.348H1586.69V377H1567.51ZM1599.65 377V319.548H1619.79V377H1599.65ZM1609.72 313.188C1606.04 313.188 1603.08 312.163 1600.82 310.114C1598.55 308.065 1597.42 305.521 1597.42 302.482C1597.42 299.443 1598.55 296.899 1600.82 294.85C1603.08 292.801 1606.04 291.776 1609.72 291.776C1613.39 291.776 1616.36 292.765 1618.62 294.744C1620.88 296.652 1622.02 299.125 1622.02 302.164C1622.02 305.344 1620.88 307.994 1618.62 310.114C1616.43 312.163 1613.46 313.188 1609.72 313.188ZM1667.96 377V366.294L1666.59 363.644V343.928C1666.59 340.748 1665.6 338.31 1663.62 336.614C1661.71 334.847 1658.64 333.964 1654.4 333.964C1651.64 333.964 1648.85 334.423 1646.02 335.342C1643.2 336.19 1640.79 337.391 1638.81 338.946L1632.03 325.272C1635.28 323.152 1639.17 321.527 1643.69 320.396C1648.28 319.195 1652.84 318.594 1657.36 318.594C1666.69 318.594 1673.9 320.749 1678.99 325.06C1684.15 329.3 1686.73 335.978 1686.73 345.094V377H1667.96ZM1651 377.954C1646.41 377.954 1642.52 377.177 1639.34 375.622C1636.16 374.067 1633.73 371.947 1632.03 369.262C1630.4 366.577 1629.59 363.573 1629.59 360.252C1629.59 356.719 1630.48 353.68 1632.24 351.136C1634.08 348.521 1636.87 346.543 1640.62 345.2C1644.36 343.787 1649.2 343.08 1655.14 343.08H1668.71V353.574H1657.89C1654.64 353.574 1652.35 354.104 1651 355.164C1649.73 356.224 1649.1 357.637 1649.1 359.404C1649.1 361.171 1649.77 362.584 1651.11 363.644C1652.45 364.704 1654.29 365.234 1656.62 365.234C1658.81 365.234 1660.79 364.704 1662.56 363.644C1664.4 362.513 1665.74 360.817 1666.59 358.556L1669.34 365.976C1668.28 369.933 1666.2 372.937 1663.09 374.986C1660.05 376.965 1656.02 377.954 1651 377.954Z" fill="white"/>
</svg>
